<svg xmlns="http://www.w3.org/2000/svg" viewBox="0 0 96 96"><defs><style>.cls-1{fill:#502d21;}</style></defs><g id="Map"><path class="cls-1" d="M8.51,48.74c12.6,7.15,11.61,6.66,12,6.66a1,1,0,0,0,1-1V33.26a1,1,0,0,0-.51-.87L9.49,25.87A1,1,0,0,0,8,26.74V47.87A1,1,0,0,0,8.51,48.74Zm1.49-9,9.5,5.39v3L10,42.83Zm9.5,3.09L10,37.49v-3l9.5,5.39ZM10,47.29V45.13l9.5,5.39v2.16Zm9.5-13.45v3.7L10,32.15v-3.7Z"/><path class="cls-1" d="M44.41,55.17l-6.75-3.08a1,1,0,0,0-1.29.42C26.85,69.64,27.5,68.34,27.5,68.72v7.14a1,1,0,0,0,1.49.87l15.5-8.79a1,1,0,0,0,.51-.87v-11A1,1,0,0,0,44.41,55.17ZM43,66.49,29.5,74.15V69l8.17-14.69L43,56.72Z"/><path class="cls-1" d="M94.51,12.13l-23,13.05C47.72,11.69,48.25,11.8,47.59,12.1c-.18.08,1.56-.9-23.09,13.08l-23-13A1,1,0,0,0,0,13V74a1,1,0,0,0,.51.87L24,88.2l.23.1c.57.15-1.34,1.09,23.76-13.15l23,13a1,1,0,0,0,.75.1c.21-.06-.89.54,23.73-13.43A1,1,0,0,0,96,74V13A1,1,0,0,0,94.51,12.13ZM76.11,29.46,90,43.36v6.36l-6.35,3.8-8.73-8.18A12.86,12.86,0,0,0,76.59,40a9.71,9.71,0,0,0-4.09-7.91v-.57ZM23.5,64.14,6,54.22v-2.3c18.57,10.54,17.21,9.8,17.5,9.87Zm2-4.43L40.85,32.12a1,1,0,0,0-.36-1.35l-6.69-4,2-1.14L44,30.53,36.62,43.84a1,1,0,0,0,.46,1.4L47,49.75V52l-11-5a1,1,0,0,0-1.28.42L25.5,63.83ZM49,50.07l11.13-2.4,1.11,1.82-4.42.94a1,1,0,0,0-.54,1.64L70.5,68.23v3L53.3,51.71a1,1,0,0,0-1-.32L49,52.11Zm23.5,20,13.59,3.22-2.56,1.45-11-2.62Zm-2-4.89L58.91,52l3.51-.75c1.91,2.86,3.62,5,3.7,5.14a1,1,0,0,0,.78.38c.55,0,.7-.26,1.56-1.39.63-.84,1.36-1.85,2-2.82Zm3.45-18,8.89,8.32a1,1,0,0,0,1.19.13l6-3.57v2.34L83.12,58.5,72.91,48.93C73.2,48.46,73.89,47.27,74,47.17Zm-7,7C64.78,51.32,59.21,43.5,59.21,40A7.7,7.7,0,0,1,71,33.47h0A7.63,7.63,0,0,1,74.59,40C74.59,43.5,69,51.36,66.9,54.15Zm1.21-23.77A9.69,9.69,0,0,0,57.21,40a13.75,13.75,0,0,0,1.92,5.85L49,48V19.32C71.16,31.89,68.85,30.48,68.11,30.38ZM47,47.56l-8.11-3.69,7.34-13.21a1,1,0,0,0-.36-1.35l-8.06-4.78L47,19.32ZM31.79,27.94l6.84,4L25.5,55.6V31.51ZM23.35,59.46,6,49.62v-28l17.5,9.92C23.5,62.25,23.57,59.07,23.35,59.46ZM6,56.52l17.5,9.92V81L6,71.09ZM25.5,67.27a1,1,0,0,0,.64-.48L36,49.12l11,5V68.82L25.5,81ZM49,54.16l3.19-.69L69.67,73.33a1.4,1.4,0,0,0,.83.39V81L49,68.82Zm23.5,20,8.48,2L72.5,81Zm16.15-2.33L73.12,68.18l-.62-.71V51.29l9.8,9.18a1,1,0,0,0,1.19.13L90,56.72V71.09ZM90,32.75l-7.12-7.12,7.12-4Zm-8.93-6.1L90,35.58v5L77.92,28.44ZM70.5,29.21,49,17v-2.3L70.5,26.91ZM47,17,25.5,29.21V26.92L47,14.72ZM2,14.72l21.5,12.2v2.29L5.49,19A1,1,0,0,0,4,19.87v51.8a1,1,0,0,0,.51.87l19,10.77v2.31L2,73.42ZM25.5,83.31,47,71.12v2.3L25.5,85.62ZM49,71.12,70.5,83.31v2.3L49,73.42Zm45,2.3L72.5,85.61v-2.3l19-10.77a1,1,0,0,0,.51-.87V19.87A1,1,0,0,0,90.51,19l-18,10.21v-2.3L94,14.72Z"/><path class="cls-1" d="M86.49,61.14l-3.91,2.33-6.4-6a1,1,0,0,0-1.68.73v7.44a1,1,0,0,0,.77,1l11.5,2.73a1,1,0,0,0,1.23-1V62A1,1,0,0,0,86.49,61.14Zm-.49,6-9.5-2.25V60.52l5.26,4.93a1,1,0,0,0,1.2.13l3-1.82Z"/><path class="cls-1" d="M66.9,35.06A4.93,4.93,0,1,0,71.83,40,4.93,4.93,0,0,0,66.9,35.06Zm0,7.85A2.93,2.93,0,1,1,69.83,40,2.93,2.93,0,0,1,66.9,42.91Z"/></g></svg>